<?xml version="1.0" encoding="utf-8"?>
<!-- Generator: Adobe Illustrator 16.0.0, SVG Export Plug-In . SVG Version: 6.00 Build 0)  -->
<!DOCTYPE svg PUBLIC "-//W3C//DTD SVG 1.1//EN" "http://www.w3.org/Graphics/SVG/1.1/DTD/svg11.dtd">
<svg version="1.1" id="Capa_1" xmlns="http://www.w3.org/2000/svg" xmlns:xlink="http://www.w3.org/1999/xlink" x="0px" y="0px"
	 width="500px" height="500px" viewBox="0 0 500 500" enable-background="new 0 0 500 500" xml:space="preserve">
<g>
	<path fill-rule="evenodd" clip-rule="evenodd" fill="#FFFFFF" d="M20,330c2.693-5.275,4.802-10.965,8.194-15.745
		c8.056-11.351,19.59-16.008,33.358-15.4c1.629,0.071,3.253,0.241,5.212,0.391c0.428-5.915,0.421-11.554,1.31-17.048
		c2.683-16.591,10.632-29.767,26.389-36.93c16.522-7.511,35.614-3.08,49.395,10.974c2.553,2.604,4.869,5.438,6.979,7.812
		c4.169-3.84,8.115-7.787,12.381-11.353c26.935-22.511,65.565-9.449,71.835,29.279c0.713,4.406,0.703,8.95,0.761,13.435
		c0.034,2.685,0.667,4.078,3.708,3.663c25.799-3.521,47.842,19.069,43.806,48.555c-3.409,24.908-16.503,42.768-40.782,51.449
		c-0.449,0.16-0.837,0.493-1.687,1.008c0.606,1.964,1.316,3.959,1.838,6.002c3.68,14.389,4.769,28.875,1.579,43.52
		c-4.384,20.133-20.832,31.614-41.075,27.885c-9.62-1.772-19.109-4.543-28.438-7.545c-14.92-4.801-29.666-5.303-44.648-0.445
		c-8.386,2.72-16.816,5.548-25.44,7.244c-27.95,5.498-46.076-9.276-47.565-38.26c-0.604-11.739,0.336-23.294,4.128-34.514
		c0.416-1.23,0.611-2.536,0.894-3.739c-5.239-2.626-10.523-4.702-15.193-7.728c-12.352-8.002-20.358-19.42-24.781-33.409
		c-0.65-2.055-1.433-4.067-2.154-6.1C20,345.333,20,337.667,20,330z M78.641,431.174c0.262,3.412,0.324,6.925,0.832,10.373
		c1.844,12.511,8.458,16.965,20.721,13.816c6.925-1.778,13.649-4.414,20.63-5.88c10.538-2.214,21.229-5.218,31.837-5.146
		c10.44,0.069,20.905,3.333,31.269,5.608c7.779,1.708,15.311,4.724,23.142,5.973c9.469,1.51,14.811-2.558,15.981-12.021
		c0.911-7.361,1.418-15.046,0.348-22.328c-3.905-26.553-18.768-46.369-39.832-62.138c-19.014-14.233-38.533-17.216-59.063-3.315
		c-2.064,1.397-4.198,2.707-6.165,4.23C95.144,378.321,80.284,400.97,78.641,431.174z M141.281,306.022
		c0.092-15.188-4.939-27.054-14.521-35.93c-10.385-9.619-24.173-8.586-32.12,2.407c-12.08,16.709-3.627,49.141,15.067,57.807
		c9.676,4.484,19.445,2.345,25.384-5.803C139.436,318.545,141.458,311.764,141.281,306.022z M161.478,305.947
		c0.814,3.099,1.575,8.254,3.51,12.924c5.976,14.431,20.793,18.105,33.123,8.543c13.428-10.415,19.7-31.78,14.043-47.834
		c-5.441-15.442-19.483-20.599-32.957-11.464C166.745,276.558,162.587,289.53,161.478,305.947z M41.103,342.659
		c0.808,12.73,6.641,23.782,17.795,31.554c6.952,4.843,14.953,7.3,22.934,2.391c8.184-5.034,10.176-13.303,9.079-22.208
		c-1.567-12.718-7.734-22.857-18.664-29.793c-6.727-4.269-14.067-5.682-21.311-1.849C43.538,326.667,41.436,333.859,41.103,342.659z
		 M212.083,355.426c-0.005,20.35,14.543,29.137,30.202,19.879c13.162-7.781,19.962-19.839,19.563-35.211
		c-0.419-16.116-14.673-24.347-28.854-16.633C219.686,330.7,213.236,342.605,212.083,355.426z"/>
	<g>
		<path fill-rule="evenodd" clip-rule="evenodd" fill="#FFFFFF" d="M209,136c2.693-5.275,4.802-10.965,8.194-15.745
			c8.056-11.351,19.59-16.008,33.358-15.4c1.629,0.071,3.253,0.241,5.212,0.391c0.428-5.915,0.421-11.554,1.31-17.048
			c2.683-16.591,10.632-29.767,26.389-36.93c16.522-7.511,35.614-3.08,49.395,10.974c2.553,2.604,4.869,5.438,6.979,7.812
			c4.169-3.84,8.115-7.787,12.381-11.353c26.935-22.511,65.565-9.449,71.835,29.279c0.713,4.406,0.703,8.95,0.761,13.435
			c0.034,2.685,0.667,4.078,3.708,3.663c25.799-3.521,47.842,19.069,43.806,48.555c-3.409,24.908-16.503,42.768-40.782,51.449
			c-0.449,0.16-0.837,0.493-1.687,1.008c0.606,1.964,1.316,3.959,1.838,6.002c3.68,14.389,4.769,28.875,1.579,43.52
			c-4.384,20.133-20.832,31.614-41.075,27.885c-9.62-1.772-19.109-4.543-28.438-7.545c-14.92-4.801-29.666-5.303-44.648-0.445
			c-8.386,2.72-16.816,5.548-25.44,7.244c-27.95,5.498-46.076-9.276-47.565-38.26c-0.604-11.739,0.336-23.294,4.128-34.514
			c0.416-1.23,0.611-2.536,0.894-3.739c-5.239-2.626-10.523-4.702-15.193-7.728c-12.352-8.002-20.358-19.42-24.781-33.409
			c-0.65-2.055-1.433-4.067-2.154-6.1C209,151.333,209,143.667,209,136z M267.641,237.174c0.262,3.412,0.324,6.925,0.832,10.373
			c1.844,12.511,8.458,16.965,20.721,13.816c6.925-1.778,13.649-4.414,20.63-5.88c10.538-2.214,21.229-5.218,31.837-5.146
			c10.44,0.069,20.905,3.333,31.269,5.608c7.779,1.708,15.311,4.724,23.142,5.973c9.469,1.51,14.811-2.558,15.981-12.021
			c0.911-7.361,1.418-15.046,0.348-22.328c-3.905-26.553-18.768-46.369-39.832-62.138c-19.014-14.233-38.533-17.216-59.063-3.315
			c-2.064,1.397-4.198,2.707-6.165,4.23C284.144,184.321,269.284,206.97,267.641,237.174z M330.281,112.022
			c0.092-15.188-4.939-27.054-14.521-35.93c-10.385-9.619-24.173-8.586-32.12,2.407c-12.08,16.709-3.627,49.141,15.067,57.807
			c9.676,4.484,19.445,2.345,25.384-5.803C328.436,124.545,330.458,117.764,330.281,112.022z M350.478,111.947
			c0.814,3.099,1.575,8.254,3.51,12.924c5.976,14.431,20.793,18.105,33.123,8.543c13.428-10.415,19.7-31.78,14.043-47.834
			c-5.441-15.442-19.483-20.599-32.957-11.464C355.745,82.558,351.587,95.53,350.478,111.947z M230.103,148.659
			c0.808,12.73,6.641,23.782,17.795,31.554c6.952,4.843,14.953,7.3,22.934,2.391c8.184-5.034,10.176-13.303,9.079-22.208
			c-1.567-12.718-7.734-22.857-18.664-29.793c-6.727-4.269-14.067-5.682-21.311-1.849
			C232.538,132.667,230.436,139.859,230.103,148.659z M401.083,161.426c-0.005,20.35,14.543,29.137,30.202,19.879
			c13.162-7.781,19.962-19.839,19.563-35.211c-0.419-16.116-14.673-24.347-28.854-16.633
			C408.686,136.7,402.236,148.605,401.083,161.426z"/>
	</g>
</g>
</svg>
